<svg id="Capa_1" data-name="Capa 1" xmlns="http://www.w3.org/2000/svg" viewBox="0 0 9.94 14.39"><defs><style>.cls-1{fill:#d74315;}.cls-2{fill:#0c96d4;}</style></defs><path class="cls-1" d="M7.92,11.14a7.69,7.69,0,0,0,1,0,1.35,1.35,0,0,1,.29,0A3.51,3.51,0,0,0,9.83,11a4.55,4.55,0,0,0,1.07-.44,4.89,4.89,0,0,0,.84-.59l0,0h0c-.35.69-.73,1.34-1.12,2-.72,1.21-1.5,2.39-2.29,3.57a2.22,2.22,0,0,1-.24-.32c-.15-.2-.28-.41-.42-.62l-.45-.69-.39-.61c-.11-.16-.2-.33-.3-.49s-.35-.56-.51-.84-.33-.57-.51-.86-.29-.57-.47-.84c-.05-.07-.06-.16-.12-.23a0,0,0,0,1,0-.05s0,0,.06,0l.2.16a5.29,5.29,0,0,0,1.27.71,4.09,4.09,0,0,0,1.08.28A3.11,3.11,0,0,1,7.92,11.14Z" transform="translate(-3.43 -1.1)"/><path class="cls-2" d="M9.54,8.79c-.09,0-.15-.07-.23-.11a.36.36,0,0,1-.09-.52.47.47,0,0,1,.23-.23,2.45,2.45,0,0,0,1.19-1.08,2.34,2.34,0,0,0,.31-1,2.51,2.51,0,0,0-.17-1.16,2.47,2.47,0,0,0-.72-1,2.62,2.62,0,0,0-.67-.39.47.47,0,0,1-.26-.45.44.44,0,0,1,.33-.41.33.33,0,0,1,.24,0,1.66,1.66,0,0,1,.43.19,3.41,3.41,0,0,1,.84.66,3.37,3.37,0,0,1,.6.9,3,3,0,0,1,.29,1,3.08,3.08,0,0,1,0,1.09,3.76,3.76,0,0,1-.24.74A3.43,3.43,0,0,1,10,8.68a.9.9,0,0,1-.27.11A.22.22,0,0,1,9.54,8.79Z" transform="translate(-3.43 -1.1)"/><path class="cls-2" d="M13.35,5.24c0-.14,0-.26,0-.4a.2.2,0,0,0,0-.08.77.77,0,0,0,0-.15A6.64,6.64,0,0,0,13,3.75a4.74,4.74,0,0,0-.77-1.25,4.9,4.9,0,0,0-1.14-1,4.59,4.59,0,0,0-.77-.38.44.44,0,0,0-.52.17.44.44,0,0,0,0,.58,1.05,1.05,0,0,0,.29.17,4.1,4.1,0,0,1,.78.46,3.89,3.89,0,0,1,.78.79,4.07,4.07,0,0,1,.49.86,5.22,5.22,0,0,1,.18.56,4.49,4.49,0,0,1,.1.64,4,4,0,0,1,0,.91,2.65,2.65,0,0,1-.13.54,3.32,3.32,0,0,1-.34.8A3.62,3.62,0,0,1,11,8.67a3.47,3.47,0,0,1-.64.44c-.13.08-.28.13-.41.21a.44.44,0,0,0-.16.6.45.45,0,0,0,.57.21,2.53,2.53,0,0,0,.37-.18,3.86,3.86,0,0,0,.77-.49,5,5,0,0,0,.92-1,4.89,4.89,0,0,0,.42-.69,5.11,5.11,0,0,0,.34-1,4.11,4.11,0,0,0,.13-.7A6.76,6.76,0,0,0,13.35,5.24Z" transform="translate(-3.43 -1.1)"/><path class="cls-2" d="M7.25,8.79c.09,0,.15-.07.23-.11a.35.35,0,0,0,.08-.52.45.45,0,0,0-.22-.23,2.52,2.52,0,0,1-1.2-1.08,2.48,2.48,0,0,1-.3-1A2.38,2.38,0,0,1,6,4.7a2.47,2.47,0,0,1,.72-1,2.73,2.73,0,0,1,.66-.39.46.46,0,0,0,.27-.45.44.44,0,0,0-.33-.41.33.33,0,0,0-.24,0,1.52,1.52,0,0,0-.43.19,3.41,3.41,0,0,0-.84.66,3.37,3.37,0,0,0-.6.9,3,3,0,0,0-.29,1A3.08,3.08,0,0,0,5,6.33a3.76,3.76,0,0,0,.24.74A3.31,3.31,0,0,0,6,8.16a3.47,3.47,0,0,0,.75.52A.9.9,0,0,0,7,8.79.22.22,0,0,0,7.25,8.79Z" transform="translate(-3.43 -1.1)"/><path class="cls-2" d="M3.44,5.24a2.69,2.69,0,0,1,0-.4.2.2,0,0,1,0-.08.76.76,0,0,1,0-.15,8.69,8.69,0,0,1,.29-.86A4.74,4.74,0,0,1,4.58,2.5a4.9,4.9,0,0,1,1.14-1,4.59,4.59,0,0,1,.77-.38A.44.44,0,0,1,7,1.3a.47.47,0,0,1,0,.58,1.05,1.05,0,0,1-.29.17,4.1,4.1,0,0,0-.78.46,3.89,3.89,0,0,0-.78.79,3.67,3.67,0,0,0-.49.86,5.22,5.22,0,0,0-.18.56,4.49,4.49,0,0,0-.1.64,4,4,0,0,0,0,.91,5.29,5.29,0,0,0,.13.54,3.81,3.81,0,0,0,.35.8,3.62,3.62,0,0,0,.89,1.06,3.47,3.47,0,0,0,.64.44c.13.08.28.13.41.21a.46.46,0,0,1-.41.81A2.53,2.53,0,0,1,6,10a3.6,3.6,0,0,1-.77-.49,5,5,0,0,1-.92-1,4.89,4.89,0,0,1-.42-.69,4.48,4.48,0,0,1-.34-1,4.11,4.11,0,0,1-.13-.7A6.76,6.76,0,0,1,3.44,5.24Z" transform="translate(-3.43 -1.1)"/><circle class="cls-1" cx="4.97" cy="4.53" r="1.2"/></svg>